<svg xmlns="http://www.w3.org/2000/svg" viewBox="0 0 600 400" width="600" height="400" role="img">
  <defs>
    <linearGradient id="sky" x1="0" y1="0" x2="0" y2="1">
      <stop offset="0" stop-color="#e1edf5"/><stop offset="1" stop-color="#f2ecdf"/>
    </linearGradient>
  </defs>
  <rect width="600" height="400" fill="url(#sky)"/>
  <circle cx="140" cy="92" r="34" fill="#c9a55f" opacity=".9"/>
  <path d="M0 250 L120 150 L210 232 L300 138 L410 246 L510 178 L600 250 V400 H0 Z" fill="#6d7a4f" opacity=".55"/>
  <path d="M0 292 L110 208 L214 286 L322 196 L430 288 L530 232 L600 292 V400 H0 Z" fill="#6d7a4f" opacity=".8"/>
  <path d="M0 336 L128 268 L248 340 L360 272 L470 342 L600 288 V400 H0 Z" fill="#0a2540" opacity=".75"/>
  <g fill="#f2ecdf" opacity=".5">
    <circle cx="300" cy="150" r="5"/><circle cx="120" cy="162" r="4"/><circle cx="510" cy="190" r="4"/>
  </g>
</svg>
